<?xml version="1.0" encoding="utf-8"?>
<!-- Generator: Adobe Illustrator 24.0.1, SVG Export Plug-In . SVG Version: 6.00 Build 0)  -->
<svg version="1.1" id="Camada_1" xmlns="http://www.w3.org/2000/svg" xmlns:xlink="http://www.w3.org/1999/xlink" x="0px" y="0px"
	 viewBox="0 0 543.8 257.7" style="enable-background:new 0 0 543.8 257.7;" xml:space="preserve">
<style type="text/css">
	.st0{fill:none;stroke:#FFEE07;stroke-width:10;stroke-miterlimit:10;}
	.st1{fill:none;stroke:#FBCF00;stroke-width:10;stroke-miterlimit:10;}
	.st2{fill:none;}
	.st3{fill:#FF0000;}
	.st4{font-family:'Bauhaus93';}
	.st5{font-size:40.3328px;}
	.st6{font-size:60px;}
	.st7{fill:url(#SVGID_1_);stroke:#006837;stroke-width:3;stroke-miterlimit:10;}
	.st8{fill:#006837;stroke:#006837;stroke-width:3;stroke-miterlimit:10;}
	.st9{fill:#00FF00;stroke:#006837;stroke-width:3;stroke-miterlimit:10;}
</style>
<g>
	<path class="st0" d="M142.2,173.6l0.1,54.6h120h223c0,0-23.3-27.3-32.6-17.1l-278.4-0.9l0.1-47.1"/>
	<polyline class="st1" points="119.2,165.5 118.8,252.7 543.8,252.7 	"/>
	<g>
		<rect x="228.3" y="79" class="st2" width="192" height="64.2"/>
		<text transform="matrix(1 0 0 1 228.2969 84.0146)" class="st3 st4 st5">Restaurante e </text>
		<text transform="matrix(1 0 0 1 255.1855 132.4141)" class="st3 st4 st5">Auto Posto</text>
		<rect x="213.6" y="151.3" class="st2" width="297.7" height="58"/>
		<text transform="matrix(1 0 0 1 213.5512 191.2791)" class="st3 st4 st6">Laranjeiras</text>
	</g>
	<g>
		
			<linearGradient id="SVGID_1_" gradientUnits="userSpaceOnUse" x1="89.2932" y1="180.3421" x2="221.4399" y2="74.4605" gradientTransform="matrix(1 0 0 -1 0 260)">
			<stop  offset="0" style="stop-color:#FF7300"/>
			<stop  offset="0.1521" style="stop-color:#F97C01"/>
			<stop  offset="0.4043" style="stop-color:#EA9602"/>
			<stop  offset="0.4744" style="stop-color:#E59E03"/>
			<stop  offset="0.5999" style="stop-color:#E5B102"/>
			<stop  offset="0.746" style="stop-color:#E5C000"/>
			<stop  offset="0.8652" style="stop-color:#E5C500"/>
			<stop  offset="0.9944" style="stop-color:#BF6F00"/>
		</linearGradient>
		<ellipse class="st7" cx="134.9" cy="116.2" rx="76" ry="72.5"/>
		<g>
			<g>
				<path class="st8" d="M32.1,94.5c19,19.3,49.4,20.5,69.6,3.6c10.1-8.4,15.2-20.5,16.5-32.6s-3.8-24.1-12.7-33.8
					C82.7,7.7,1.7,1.6,1.7,1.6S9.3,69.2,32.1,94.5z"/>
				<path class="st9" d="M95.3,41.5c6.3,7.2,8.9,15.7,8.9,24.1c0,6-2.5,10.9-6.3,16.9C78.9,74,61.2,62,49.8,46.3
					C58.6,64.4,72.6,80.1,89,90.9c-15.2,9.7-34.2,7.2-45.6-6C32.1,72.8,15.6,39,13.1,13.7C39.7,18.5,84,28.2,95.3,41.5z"/>
			</g>
			<g>
				<path class="st8" d="M89,40.2c-10.1,14.5-6.3,35,8.9,44.6c7.6,4.8,16.5,6,25.3,4.8c8.9-1.2,16.5-6,21.5-13.3
					c13.9-18.1,5.1-70,5.1-70S102.9,22.1,89,40.2z"/>
				<path class="st9" d="M135.8,71.6c-3.8,4.8-8.9,8.4-15.2,9.7c-3.8,1.2-8.9,0-12.7-1.2c2.5-13.3,7.6-26.5,16.5-36.2
					c-10.1,8.4-19,19.3-24,31.4c-8.9-7.2-10.1-20.5-2.5-29c6.3-9.7,27.8-24.1,44.3-29C142.2,33,142.2,63.2,135.8,71.6z"/>
			</g>
		</g>
	</g>
</g>
</svg>
